<?xml version="1.0" encoding="UTF-8"?>
<svg width="137px" height="40px" viewBox="0 0 137 40" version="1.1" xmlns="http://www.w3.org/2000/svg" xmlns:xlink="http://www.w3.org/1999/xlink">
    <!-- Generator: sketchtool 61 (101010) - https://sketch.com -->
    <title>9617C9D0-2FDE-45E1-A1DB-F101B16D821D</title>
    <desc>Created with sketchtool.</desc>
    <g id="Desktop" stroke="none" stroke-width="1" fill="none" fill-rule="evenodd" opacity="0.917736235">
        <g id="Screens/Desktop/Landing" transform="translate(-1048.000000, -636.000000)">
            <g id="Group-5" transform="translate(881.000000, 120.000000)">
                <g id="Group-7" transform="translate(16.000000, 516.000000)">
                    <g id="Stacked-Group">
                        <g id="appleStore" transform="translate(151.000000, 0.000000)">
                            <g id="App-Store-Button">
                                <path d="M6.10506547,0 L130.792552,0 C133.838184,0 136.305951,2.14907237 136.305951,4.80008748 L136.305951,35.1999125 C136.305951,37.8511962 133.837518,40 130.792552,40 L6.10506547,40 C3.05943284,40 0.591665662,37.8509276 0.591665662,35.1999125 L0.591665662,4.80008748 C0.591665662,2.14880379 3.06009884,0 6.10506547,0 Z" id="background" fill="#000000"></path>
                                <g id="icon" transform="translate(19.066168, 7.040000)" fill="#FFFFFF">
                                    <path d="M16.1231887,12.0443384 C16.0974077,9.18310864 18.4692655,7.79111104 18.5777237,7.72630503 C17.2344414,5.77058392 15.1523984,5.5033701 14.4207496,5.48206401 C12.6720823,5.29829902 10.9758662,6.52694996 10.085086,6.52694996 C9.1765258,6.52694996 7.80479546,5.49981908 6.32638486,5.5300027 C4.42392022,5.55929857 2.64413788,6.65922524 1.6680135,8.36726311 C-0.346465412,11.8499204 1.15594825,16.9678197 3.08597196,19.7828863 C4.05142831,21.1624553 5.17957206,22.7009322 6.65620466,22.6467793 C8.10083318,22.5881875 8.6404575,21.7270666 10.3837907,21.7270666 C12.111122,21.7270666 12.6178532,22.6467793 14.1238229,22.6112691 C15.6742426,22.5881875 16.650367,21.2272613 17.5820413,19.8352637 C18.697739,18.2568379 19.1457961,16.6988304 19.1635762,16.6189325 C19.1280161,16.6073917 16.1534148,15.4737304 16.1231887,12.0443384" id="Fill-2"></path>
                                    <path d="M13.2783818,3.63021007 C14.0553697,2.65989542 14.586993,1.33980586 14.4394186,0.000185725019 C13.3148309,0.0498999249 11.9084295,0.776970098 11.0985485,1.72597866 C10.3820127,2.56224252 9.74193118,3.93293403 9.90728559,5.22195222 C11.1705577,5.31605409 12.4676118,4.58543291 13.2783818,3.63021007" id="Fill-3"></path>
                                </g>
                                <g id="App-Store" transform="translate(46.057360, 17.440000)" fill="#FFFFFF">
                                    <path d="M10.0564413,12.0488102 L8.03751735,12.0488102 L6.93159865,8.57858152 L3.08755328,8.57858152 L2.03408571,12.0488102 L0.0685019206,12.0488102 L3.87787621,0.234585725 L6.23017594,0.234585725 L10.0564413,12.0488102 L10.0564413,12.0488102 Z M6.59822284,7.12266566 L5.5980954,4.03860977 C5.49230414,3.7225695 5.29316766,2.98040751 5.00157495,1.81212382 L4.96601486,1.81212382 C4.84866657,2.31459234 4.66108712,3.05675432 4.40416549,4.03860977 L3.42092909,7.12266566 L6.59822284,7.12266566 L6.59822284,7.12266566 Z" id="Fill-4"></path>
                                    <path d="M19.8336871,7.68461367 C19.8336871,9.1334275 19.4398591,10.2786296 18.6513142,11.1193322 C17.9454465,11.8677085 17.0680014,12.2414527 16.0216458,12.2414527 C14.8917241,12.2414527 14.0791761,11.8393004 13.5857799,11.0323324 L13.5857799,15.5021716 L11.6904273,15.5021716 L11.6904273,6.32990173 C11.6904273,5.41995432 11.6664242,4.48692532 11.6201961,3.52992697 L13.2870751,3.52992697 L13.3928664,4.8810879 L13.4284265,4.8810879 C14.060507,3.86283456 15.0197404,3.35415177 16.3070155,3.35415177 C17.313366,3.35415177 18.153473,3.75097761 18.8255586,4.54551705 C19.4967553,5.34183201 19.8336871,6.38760571 19.8336871,7.68461367 L19.8336871,7.68461367 Z M17.9027744,7.75385845 C17.9027744,6.92469662 17.7160839,6.24112637 17.340925,5.70314771 C16.931095,5.14297521 16.3808027,4.86155733 15.690937,4.86155733 C15.2233219,4.86155733 14.7983788,5.01780195 14.4187749,5.3267402 C14.038282,5.63656619 13.7893614,6.04226957 13.6729021,6.54562585 C13.6142279,6.77910503 13.5848909,6.96997205 13.5848909,7.12089016 L13.5848909,8.54307137 C13.5848909,9.16094786 13.7751373,9.68383471 14.1556303,10.1117319 C14.5361232,10.5378536 15.0304084,10.7518023 15.6384859,10.7518023 C16.3523546,10.7518023 16.907981,10.4757109 17.3053649,9.92796694 C17.7036379,9.37844748 17.9027744,8.65404057 17.9027744,7.75385845 L17.9027744,7.75385845 Z" id="Fill-5"></path>
                                    <path d="M29.645604,7.68461367 C29.645604,9.1334275 29.2517761,10.2786296 28.4632311,11.1193322 C27.7564744,11.8677085 26.8799183,12.2414527 25.8326737,12.2414527 C24.703641,12.2414527 23.891093,11.8393004 23.3968078,11.0323324 L23.3968078,15.5021716 L21.5014552,15.5021716 L21.5014552,6.32990173 C21.5014552,5.41995432 21.4774521,4.48692532 21.431224,3.52992697 L23.0981031,3.52992697 L23.2038943,4.8810879 L23.2394544,4.8810879 C23.8706459,3.86283456 24.8298793,3.35415177 26.1180434,3.35415177 C27.1235049,3.35415177 27.9645009,3.75097761 28.6374756,4.54551705 C29.3077832,5.34183201 29.645604,6.38760571 29.645604,7.68461367 L29.645604,7.68461367 Z M27.7138023,7.75385845 C27.7138023,6.92469662 27.5262229,6.24112637 27.1510639,5.70314771 C26.7421229,5.14297521 26.1927196,4.86155733 25.5028539,4.86155733 C25.0352388,4.86155733 24.6102958,5.01780195 24.2289138,5.3267402 C23.8493099,5.63656619 23.6003893,6.04226957 23.48393,6.54562585 C23.4261449,6.77910503 23.3950298,6.96997205 23.3950298,7.12089016 L23.3950298,8.54307137 C23.3950298,9.16094786 23.5861653,9.68383471 23.9648802,10.1117319 C24.3453731,10.5369659 24.8396583,10.7518023 25.4495138,10.7518023 C26.1642715,10.7518023 26.7198979,10.4757109 27.1163929,9.92796694 C27.5146658,9.37844748 27.7138023,8.65404057 27.7138023,7.75385845 L27.7138023,7.75385845 Z" id="Fill-6"></path>
                                    <path d="M40.6158908,8.7357139 C40.6158908,9.74065094 40.2647349,10.558272 39.5642012,11.1894648 C38.7943253,11.8783615 37.7195217,12.2236977 36.3415684,12.2236977 C35.0685172,12.2236977 34.0479428,11.9786777 33.2780669,11.48775 L33.716345,9.91021187 C34.547562,10.4011396 35.4605672,10.6470473 36.4544716,10.6470473 C37.1692294,10.6470473 37.7248557,10.4854762 38.1213507,10.1649971 C38.5196237,9.8427426 38.7196491,9.41395763 38.7196491,8.87775447 C38.7196491,8.39747979 38.5542947,7.99443967 38.2271419,7.6668586 C37.8991001,7.34105304 37.3568088,7.03566582 36.595823,6.75691119 C34.5244479,5.98545334 33.4878714,4.8562308 33.4878714,3.37279459 C33.4878714,2.40336769 33.8541403,1.609716 34.5840111,0.989176258 C35.3147708,0.369524267 36.2837832,0.059698272 37.4892701,0.059698272 C38.5658518,0.059698272 39.462855,0.247014275 40.1749457,0.620758527 L39.6993295,2.16367423 C39.0290219,1.80147077 38.2724811,1.62036905 37.426151,1.62036905 C36.7576214,1.62036905 36.2322211,1.78460346 35.8579512,2.11129677 C35.5423554,2.40336769 35.381446,2.75935687 35.381446,3.18192757 C35.381446,3.6479982 35.5636915,4.03505875 35.9272933,4.33778272 C36.2420001,4.61831285 36.8162955,4.92281232 37.6466235,5.24950563 C38.66542,5.65964778 39.4130708,6.1372592 39.893132,6.68589091 C40.3758602,7.23452261 40.6158908,7.91898062 40.6158908,8.7357139" id="Fill-7"></path>
                                    <path d="M46.8984691,4.95033268 L44.809314,4.95033268 L44.809314,9.08637656 C44.809314,10.1383645 45.1773609,10.6630269 45.9152327,10.6630269 C46.2539425,10.6630269 46.5348672,10.6346188 46.7571177,10.5751393 L46.8095689,12.0124123 C46.436188,12.1517896 45.9445698,12.2219222 45.3364923,12.2219222 C44.5870635,12.2219222 44.002989,11.9928817 43.579824,11.5374642 C43.158437,11.0811588 42.9477435,10.316803 42.9477435,9.24084568 L42.9477435,4.94678167 L41.7040294,4.94678167 L41.7040294,3.52637596 L42.9477435,3.52637596 L42.9477435,1.96659294 L44.809314,1.40553268 L44.809314,3.52637596 L46.8984691,3.52637596 L46.8984691,4.95033268" id="Fill-8"></path>
                                    <path d="M56.30589,7.71923606 C56.30589,9.02867258 55.9316201,10.1037421 55.1821913,10.9444448 C54.3989804,11.8091168 53.3570698,12.2414527 52.0582377,12.2414527 C50.8047446,12.2414527 49.8081732,11.8268718 49.0649674,10.99771 C48.3217616,10.1685482 47.9501587,9.12277446 47.9501587,7.86127663 C47.9501587,6.54118708 48.3350966,5.45990323 49.0996385,4.6192006 C49.8659583,3.77849797 50.8989788,3.35681503 52.197811,3.35681503 C53.4504151,3.35681503 54.4549875,3.77317145 55.2168624,4.60144553 C55.9440661,5.40663802 56.30589,6.44442194 56.30589,7.71923606 L56.30589,7.71923606 Z M54.3411952,7.76273599 C54.3411952,6.9824006 54.1722848,6.31303441 53.833575,5.75286191 C53.436191,5.07639369 52.8663406,4.73904733 52.1302468,4.73904733 C51.371928,4.73904733 50.7878536,5.07639369 50.3922476,5.75286191 C50.0517598,6.31303441 49.8837384,6.9939414 49.8837384,7.79824613 C49.8837384,8.57946927 50.0517598,9.25061097 50.3922476,9.80812021 C50.8020776,10.4854762 51.373706,10.8237103 52.1151338,10.8237103 C52.8387816,10.8237103 53.406854,10.4774864 53.818462,9.79214065 C54.1660618,9.21865184 54.3411952,8.54484688 54.3411952,7.76273599 L54.3411952,7.76273599 Z" id="Fill-9"></path>
                                    <path d="M62.469342,5.19446491 C62.2817626,5.15984252 62.0808481,5.14297521 61.8719326,5.14297521 C61.205181,5.14297521 60.6895597,5.39243396 60.3268468,5.89667799 C60.0112511,6.34055477 59.8538977,6.90161503 59.8538977,7.578971 L59.8538977,12.0488102 L57.9585451,12.0488102 L57.9585451,6.21271826 C57.9585451,5.23175056 57.939876,4.33600721 57.9034269,3.53081473 L59.5543039,3.53081473 L59.6236461,5.16073028 L59.6760972,5.16073028 C59.8770117,4.60055778 60.1917185,4.14869121 60.6237735,3.81134485 C61.0469386,3.50595763 61.5021077,3.35415177 61.9937259,3.35415177 C62.1688593,3.35415177 62.3271017,3.36746807 62.467564,3.38877415 L62.469342,5.19446491" id="Fill-10"></path>
                                    <path d="M70.9459777,7.38632847 C70.9459777,7.72545034 70.9237527,8.01130699 70.8766355,8.24478618 L65.1914667,8.24478618 C65.2119137,9.08637656 65.4883934,9.73088565 66.0155717,10.1747624 C66.4947439,10.5707005 67.1152674,10.7695573 67.8753642,10.7695573 C68.7172493,10.7695573 69.4853472,10.6363943 70.1761018,10.3665172 L70.4730286,11.6803925 C69.6658146,12.0310551 68.7119153,12.2068304 67.6131086,12.2068304 C66.2902734,12.2068304 65.2519188,11.8179943 64.496267,11.0420977 C63.7432822,10.2653133 63.3645672,9.22042735 63.3645672,7.91365409 C63.3645672,6.62996243 63.7148341,5.56021938 64.4189238,4.7070882 C65.1550176,3.79625304 66.149811,3.34083546 67.4015261,3.34083546 C68.6310161,3.34083546 69.5618013,3.79625304 70.1929929,4.7070882 C70.6943901,5.42883186 70.9459777,6.32368745 70.9459777,7.38632847 L70.9459777,7.38632847 Z M69.1386363,6.89540075 C69.1519713,6.33345274 69.027511,5.8505148 68.7705894,5.44037265 C68.4425476,4.91304703 67.9375944,4.65027198 67.2610637,4.65027198 C66.6405402,4.65027198 66.136476,4.90683276 65.7524271,5.42172983 C65.4368313,5.83098422 65.2492518,6.32368745 65.1914667,6.89362524 L69.1386363,6.89540075 L69.1386363,6.89540075 Z" id="Fill-11"></path>
                                </g>
                                <g id="Available-on-the" transform="translate(46.778373, 7.280000)" fill="#FFFFFF">
                                    <path d="M4.96331595,6.16621548 L3.97030053,6.16621548 L3.42712021,4.46084087 L1.5379906,4.46084087 L1.01970234,6.16621548 L0.0533569832,6.16621548 L1.92559555,0.359419384 L3.08129836,0.359419384 L4.96331595,6.16621548 L4.96331595,6.16621548 Z M3.26354381,3.7453115 L2.77192561,2.2290284 C2.72036349,2.07367153 2.62524025,1.71235582 2.4785549,1.135316 L2.46077485,1.135316 C2.4003227,1.38477476 2.31408949,1.74697821 2.18429518,2.2290284 L1.701567,3.7453115 L3.26354381,3.7453115 L3.26354381,3.7453115 Z" id="Fill-12"></path>
                                    <path d="M9.64480137,1.97956965 L8.0570435,6.16621548 L7.15115029,6.16621548 L5.61495454,1.97956965 L6.61597098,1.97956965 L7.33250673,4.19362705 C7.45341102,4.56382029 7.55653528,4.91714621 7.63387846,5.25271705 L7.65965953,5.25271705 C7.7290017,4.9517686 7.83212595,4.59844267 7.96103126,4.19362705 L8.66867699,1.97956965 L9.64480137,1.97956965" id="Fill-13"></path>
                                    <path d="M13.0247876,6.16621548 L12.9554454,5.68416529 L12.9296644,5.68416529 C12.6451837,6.0721136 12.2309087,6.26120511 11.7046194,6.26120511 C10.9543016,6.26120511 10.4191223,5.735655 10.4191223,5.02900316 C10.4191223,3.995658 11.3161254,3.46123035 12.8692122,3.46123035 L12.8692122,3.38399579 C12.8692122,2.83270083 12.5758415,2.55660947 11.9979901,2.55660947 C11.5837151,2.55660947 11.2210022,2.66047663 10.9027394,2.86732322 L10.713382,2.25566101 C11.1018759,2.01419204 11.5846041,1.89345755 12.1544545,1.89345755 C13.2497052,1.89345755 13.8026645,2.47049737 13.8026645,3.62546476 L13.8026645,5.16749271 C13.8026645,5.59006341 13.8204445,5.91764448 13.8631166,6.16710323 L13.0247876,6.16621548 L13.0247876,6.16621548 Z M12.8949933,4.08088234 C11.8593058,4.08088234 11.3419065,4.33122885 11.3419065,4.92513599 C11.3419065,5.364574 11.6094962,5.57941037 11.9802101,5.57941037 C12.4549372,5.57941037 12.8949933,5.21809467 12.8949933,4.72716694 L12.8949933,4.08088234 L12.8949933,4.08088234 Z" id="Fill-14"></path>
                                    <path d="M15.8775956,1.28978512 C15.5673338,1.28978512 15.3255252,1.04831615 15.3255252,0.729612622 C15.3255252,0.410909091 15.5753348,0.178317656 15.8953756,0.178317656 C16.2145274,0.178317656 16.473227,0.410909091 16.464337,0.729612622 C16.464337,1.06607122 16.2234174,1.28978512 15.8775956,1.28978512 L15.8775956,1.28978512 Z M15.4295385,1.97956965 L16.3612127,1.97956965 L16.3612127,6.16621548 L15.4295385,6.16621548 L15.4295385,1.97956965 Z" id="Fill-15"></path>
                                    <polygon id="Fill-16" points="18.0165348 0.0584709241 18.948209 0.0584709241 18.948209 6.16621548 18.0165348 6.16621548"></polygon>
                                    <path d="M22.9078247,6.16621548 L22.8375935,5.68416529 L22.8127015,5.68416529 C22.5282208,6.0721136 22.1139458,6.26120511 21.5876565,6.26120511 C20.8373387,6.26120511 20.3021593,5.735655 20.3021593,5.02900316 C20.3021593,3.995658 21.1991625,3.46123035 22.7522493,3.46123035 L22.7522493,3.38399579 C22.7522493,2.83270083 22.4588786,2.55660947 21.8810272,2.55660947 C21.4667522,2.55660947 21.1040393,2.66047663 20.7857765,2.86732322 L20.5955301,2.25477325 C20.984024,2.01330428 21.4667522,1.8925698 22.0366026,1.8925698 C23.1318532,1.8925698 23.6857016,2.46960962 23.6857016,3.62457701 L23.6857016,5.16660496 C23.6857016,5.58917566 23.7034816,5.91675672 23.7443757,6.16621548 L22.9078247,6.16621548 L22.9078247,6.16621548 Z M22.7780304,4.08088234 C21.7423429,4.08088234 21.2249436,4.33122885 21.2249436,4.92513599 C21.2249436,5.364574 21.4925332,5.57941037 21.8632472,5.57941037 C22.3379743,5.57941037 22.7780304,5.21809467 22.7780304,4.72716694 L22.7780304,4.08088234 L22.7780304,4.08088234 Z" id="Fill-17"></path>
                                    <path d="M27.4595158,6.26120511 C26.8647733,6.26120511 26.4256063,6.0108586 26.1402366,5.51993088 L26.1224565,5.51993088 L26.0691164,6.16621548 L25.2761265,6.16621548 C25.3010185,5.83064463 25.3099086,5.4506861 25.3099086,5.03788069 L25.3099086,0.0584709241 L26.2433608,0.0584709241 L26.2433608,2.59211961 L26.2602519,2.59211961 C26.5367315,2.12693674 26.9847886,1.8943453 27.5973111,1.8943453 C28.6072176,1.8943453 29.3148633,2.75635402 29.3148633,4.01341307 C29.3148633,5.3130843 28.5289854,6.26120511 27.4595158,6.26120511 L27.4595158,6.26120511 Z M27.2701583,2.62496649 C26.73409,2.62496649 26.2433608,3.09014936 26.2433608,3.73643396 L26.2433608,4.46883065 C26.2433608,5.04587047 26.6843059,5.51993088 27.2532673,5.51993088 C27.951134,5.51993088 28.367187,4.9517686 28.367187,4.04714771 C28.366298,3.20289406 27.934243,2.62496649 27.2701583,2.62496649 L27.2701583,2.62496649 Z" id="Fill-18"></path>
                                    <polygon id="Fill-19" points="30.6937057 0.0584709241 31.624491 0.0584709241 31.624491 6.16621548 30.6937057 6.16621548"></polygon>
                                    <path d="M36.6953593,4.29660646 L33.8985585,4.29660646 C33.9172275,5.0893704 34.4417388,5.5367982 35.2178377,5.5367982 C35.6330017,5.5367982 36.0126056,5.46755342 36.3486485,5.33882915 L36.4935558,5.98511375 C36.0970609,6.15733794 35.6312237,6.24345004 35.0880434,6.24345004 C33.7758762,6.24345004 32.9997773,5.41606371 32.9997773,4.1332598 C32.9997773,2.84956814 33.7945452,1.88458002 34.9840301,1.88458002 C36.0526107,1.88458002 36.7273634,2.67734395 36.7273634,3.87492352 C36.7300304,4.03827017 36.7220294,4.18474951 36.6953593,4.29660646 L36.6953593,4.29660646 Z M35.8419172,3.63345455 C35.8419172,2.98716995 35.5129864,2.53086461 34.917355,2.53086461 C34.3821757,2.53086461 33.9607886,2.99604748 33.8985585,3.63345455 L35.8419172,3.63345455 L35.8419172,3.63345455 Z" id="Fill-20"></path>
                                    <path d="M42.3423011,6.26120511 C41.1172561,6.26120511 40.3233772,5.34770669 40.3233772,4.10751495 C40.3233772,2.81494576 41.1341471,1.89345755 42.4125323,1.89345755 C43.6189082,1.89345755 44.4314562,2.76345605 44.4314562,4.03915793 C44.4314562,5.34770669 43.5940161,6.26120511 42.3423011,6.26120511 L42.3423011,6.26120511 Z M42.3778612,2.57347678 C41.7048865,2.57347678 41.2737205,3.20200631 41.2737205,4.08088234 C41.2737205,4.94289106 41.7137765,5.57142059 42.3689711,5.57142059 C43.0241657,5.57142059 43.4642218,4.89939113 43.4642218,4.06312727 C43.4642218,3.21088385 43.0330558,2.57347678 42.3778612,2.57347678 L42.3778612,2.57347678 Z" id="Fill-21"></path>
                                    <path d="M49.4400944,6.16621548 L48.5101981,6.16621548 L48.5101981,3.76217881 C48.5101981,3.02179234 48.2248284,2.65071134 47.6638681,2.65071134 C47.1117977,2.65071134 46.7313048,3.12477175 46.7313048,3.67606672 L46.7313048,6.16621548 L45.8014085,6.16621548 L45.8014085,3.17626146 C45.8014085,2.80606822 45.7907405,2.40924237 45.7658484,1.97868189 L46.5855084,1.97868189 L46.6290695,2.62496649 L46.6557396,2.62496649 C46.9037712,2.17753869 47.4140584,1.8925698 47.9839088,1.8925698 C48.862243,1.8925698 49.4400944,2.56459925 49.4400944,3.65831165 L49.4400944,6.16621548" id="Fill-22"></path>
                                    <path d="M55.5359822,2.67734395 L54.5109627,2.67734395 L54.5109627,4.71029962 C54.5109627,5.22785995 54.6914302,5.48619624 55.0532541,5.48619624 C55.2168305,5.48619624 55.3564038,5.46844117 55.4675291,5.44269632 L55.4933101,6.14934816 C55.3119537,6.21859294 55.0692561,6.25321533 54.7696624,6.25321533 C54.0344576,6.25321533 53.5970685,5.8483997 53.5970685,4.78842194 L53.5970685,2.67734395 L52.986324,2.67734395 L52.986324,1.97956965 L53.5970685,1.97956965 L53.5970685,1.21255056 L54.5109627,0.936459204 L54.5109627,1.97868189 L55.5359822,1.97868189 L55.5359822,2.67734395" id="Fill-23"></path>
                                    <path d="M60.4699443,6.16621548 L59.537381,6.16621548 L59.537381,3.77993388 C59.537381,3.03066987 59.2520113,2.6515991 58.6919399,2.6515991 C58.2092118,2.6515991 57.7611547,2.97918017 57.7611547,3.64233208 L57.7611547,6.16621548 L56.8285914,6.16621548 L56.8285914,0.0584709241 L57.7611547,0.0584709241 L57.7611547,2.57347678 L57.7789347,2.57347678 C58.0714164,2.11717145 58.4954705,1.8925698 59.0386508,1.8925698 C59.9267639,1.8925698 60.4699443,2.58146657 60.4699443,3.67606672 L60.4699443,6.16621548" id="Fill-24"></path>
                                    <path d="M65.2305509,4.29660646 L62.4346391,4.29660646 C62.4524191,5.0893704 62.9769304,5.5367982 63.7539183,5.5367982 C64.1699713,5.5367982 64.5486862,5.46755342 64.882951,5.33882915 L65.0287474,5.98511375 C64.6331414,6.15733794 64.1664153,6.24345004 63.622346,6.24345004 C62.3110678,6.24345004 61.5349689,5.41606371 61.5349689,4.1332598 C61.5349689,2.84956814 62.3288478,1.88458002 63.5183327,1.88458002 C64.5878023,1.88458002 65.261666,2.67734395 65.261666,3.87492352 C65.265222,4.03827017 65.2563319,4.18474951 65.2305509,4.29660646 L65.2305509,4.29660646 Z M64.3762198,3.63345455 C64.3762198,2.98716995 64.049067,2.53086461 63.4534355,2.53086461 C62.9182562,2.53086461 62.4959802,2.99604748 62.4346391,3.63345455 L64.3762198,3.63345455 L64.3762198,3.63345455 Z" id="Fill-25"></path>
                                </g>
                            </g>
                        </g>
                    </g>
                </g>
            </g>
        </g>
    </g>
</svg>