<?xml version="1.0" encoding="UTF-8"?>
<svg width="149px" height="36px" viewBox="0 0 149 36" version="1.1" xmlns="http://www.w3.org/2000/svg" xmlns:xlink="http://www.w3.org/1999/xlink">
    <!-- Generator: Sketch 61.2 (89653) - https://sketch.com -->
    <title>poweredByVideoCoinLight</title>
    <desc>Created with Sketch.</desc>
    <defs>
        <filter x="-64.4%" y="-266.7%" width="228.9%" height="636.1%" filterUnits="objectBoundingBox" id="filter-1">
            <feOffset dx="0" dy="2" in="SourceAlpha" result="shadowOffsetOuter1"></feOffset>
            <feGaussianBlur stdDeviation="24" in="shadowOffsetOuter1" result="shadowBlurOuter1"></feGaussianBlur>
            <feColorMatrix values="0 0 0 0 0   0 0 0 0 0   0 0 0 0 0  0 0 0 1 0" type="matrix" in="shadowBlurOuter1" result="shadowMatrixOuter1"></feColorMatrix>
            <feMerge>
                <feMergeNode in="shadowMatrixOuter1"></feMergeNode>
                <feMergeNode in="SourceGraphic"></feMergeNode>
            </feMerge>
        </filter>
    </defs>
    <g id="Desktop" stroke="none" stroke-width="1" fill="none" fill-rule="evenodd">
        <g id="Screens/Desktop/Player" transform="translate(-555.000000, -816.000000)">
            <g id="Shadow-Wrapper" filter="url(#filter-1)" transform="translate(555.000000, 816.000000)">
                <g id="Components/Logos/Powered-By-(Light)">
                    <g id="Logos/Company-Logo/Dark/Horizontal-Logo" transform="translate(0.600806, 0.600000)">
                        <g id="VideoCoin_logo_color_black" transform="translate(0.387096, 0.386577)">
                            <g id="Logos/Company-Logo/Light/Symbol-Logo" transform="translate(0.213710, 0.213423)">
                                <g id="Symmetrical-Logo">
                                    <path d="M16.8225806,33.6 C26.1134354,33.6 33.6451613,26.0783838 33.6451613,16.8 C33.6451613,7.5216162 26.1134354,0 16.8225806,0 C7.5317259,0 0,7.5216162 0,16.8 C0,26.0783838 7.5317259,33.6 16.8225806,33.6 Z M16.8225806,32.1391304 C8.33962631,32.1391304 1.4628331,25.2715678 1.4628331,16.8 C1.4628331,8.32843219 8.33962631,1.46086957 16.8225806,1.46086957 C25.305535,1.46086957 32.1823282,8.32843219 32.1823282,16.8 C32.1823282,25.2715678 25.305535,32.1391304 16.8225806,32.1391304 Z" id="Outer-Ring" fill="#FF8A3C" fill-rule="nonzero"></path>
                                    <path d="M29.3274935,10.5960686 C30.2837265,12.5087748 30.7885335,14.6235912 30.7885335,16.8091378 C30.7885335,24.4841917 24.5750245,30.7060523 16.9102727,30.7060523 C16.0812089,30.7060523 15.261056,30.6331763 14.4564527,30.4893832 L14.4564527,30.4893832 L14.713123,29.0493054 C15.4331013,29.177975 16.1673653,29.2432192 16.9102727,29.2432192 C23.7682085,29.2432192 29.327664,23.6762913 29.327664,16.8091378 C29.327664,14.8522213 28.8763373,12.9614532 28.0211705,11.2509048 L28.0211705,11.2509048 Z M16.8225806,2.92173913 L16.8225806,4.3826087 C11.7263376,4.3826087 7.20408206,7.47270383 5.3081181,12.1042033 L5.3081181,12.1042033 L3.95406573,11.5513916 C6.07297431,6.37527845 11.1271188,2.92173913 16.8225806,2.92173913 L16.8225806,2.92173913 Z" id="Ring" fill="#FF5D50"></path>
                                    <path d="M21.1234358,6.71757421 C25.1351906,8.42631529 27.7938289,12.3688278 27.7938289,16.8 C27.7938289,22.1296908 23.9570016,26.6602633 18.7613378,27.5858615 L18.7613378,27.5858615 L18.5044419,26.1476955 C23.0052645,25.345882 26.3309958,21.418818 26.3309958,16.8 C26.3309958,12.9593045 24.0268095,9.54241115 20.5495463,8.06132803 L20.5495463,8.06132803 Z M16.8225806,5.84347826 L16.8225806,7.30434783 C11.571228,7.30434783 7.3141655,11.5556961 7.3141655,16.8 C7.3141655,20.0631758 8.97450893,23.0422107 11.6686665,24.7811742 L11.6686665,24.7811742 L10.8746163,26.0080873 C7.76775729,24.0027427 5.8513324,20.5642392 5.8513324,16.8 C5.8513324,10.7488801 10.7633276,5.84347826 16.8225806,5.84347826 L16.8225806,5.84347826 Z" id="Ring-2" fill="#F53568"></path>
                                    <path d="M16.8225806,24.8347826 C21.2660329,24.8347826 24.8681627,21.2374879 24.8681627,16.8 C24.8681627,12.3625121 21.2660329,8.76521739 16.8225806,8.76521739 C12.3791284,8.76521739 8.7769986,12.3625121 8.7769986,16.8 L10.2398317,16.8 C10.2398317,13.1693281 13.1870288,10.226087 16.8225806,10.226087 C20.4581325,10.226087 23.4053296,13.1693281 23.4053296,16.8 C23.4053296,20.4306719 20.4581325,23.373913 16.8225806,23.373913 L16.8225806,24.8347826 Z" id="Ring-3" fill="#7130CC" transform="translate(16.822581, 16.800000) rotate(180.000000) translate(-16.822581, -16.800000) "></path>
                                    <path d="M21.3325696,17.3516419 C21.3325696,17.3516419 20.3310296,18.3826614 18.5493161,19.5303735 C16.7676026,20.6780857 15.5652809,21.1051359 15.5652809,21.1051359 C15.03232,21.3352832 14.5378885,21.0343662 14.4660102,20.4447037 C14.4660102,20.4447037 14.2626227,19.266353 14.2626227,16.7970095 C14.2626227,14.327666 14.4669655,13.1266399 14.4669655,13.1266399 C14.5336178,12.5371115 15.0224593,12.2603579 15.5483294,12.5082548 C15.5483294,12.5082548 16.6616317,12.9683361 18.5493161,14.1843105 C20.4370006,15.4002848 21.3129294,16.2430705 21.3129294,16.2430705 C21.658185,16.5398171 21.6645018,17.0391854 21.3325696,17.3516419 Z" id="Play" fill="#FFFFFF"></path>
                                </g>
                            </g>
                            <path d="M47.7628374,29.5874561 L52.6595734,16.5226553 L49.0208921,16.5226553 L45.9628514,25.8173279 L42.9048108,16.5226553 L39.2661295,16.5226553 L44.1628655,29.5874561 L47.7628374,29.5874561 Z M57.0143781,19.7888555 L53.7821453,19.7888555 L53.7821453,29.5874561 L57.0143781,29.5874561 L57.0143781,19.7888555 Z M55.3692297,19.1916075 C56.3950281,19.1916075 57.1885703,18.4823754 57.1885703,17.5118474 C57.1885703,16.5226553 56.3950281,15.8134233 55.3692297,15.8134233 C54.3434312,15.8134233 53.5692437,16.5226553 53.5692437,17.5118474 C53.5692437,18.4823754 54.3434312,19.1916075 55.3692297,19.1916075 Z M66.072372,24.7161518 C66.072372,23.1670397 65.1627017,22.2898317 63.8852923,22.2898317 C62.5691735,22.2898317 61.6982125,23.2790237 61.6982125,24.7161518 C61.6982125,26.1719439 62.5885282,27.1051439 63.8852923,27.1051439 C65.2788298,27.1051439 66.072372,26.0226319 66.072372,24.7161518 Z M66.1885001,29.5874561 L66.1885001,28.822232 C65.8981798,29.1395201 64.9304454,29.8300881 63.4401344,29.8300881 C60.5175766,29.8300881 58.4659797,27.702392 58.4659797,24.6974878 C58.4659797,21.6552556 60.3240297,19.5462235 63.2659423,19.5462235 C64.8143173,19.5462235 65.762697,20.2927835 65.9755985,20.5354155 L65.9755985,16.0933833 L69.2078314,16.0933833 L69.2078314,29.5874561 L66.1885001,29.5874561 Z M80.6270971,25.5000398 L73.9690846,25.5000398 C74.0465033,26.3772479 74.9174643,27.1238079 76.1174549,27.1238079 C77.3368002,27.1238079 78.0529237,26.3585839 78.2464706,26.0786239 L80.3754862,27.665064 C80.0851659,28.243648 78.6916284,29.8300881 76.0593908,29.8300881 C72.7110299,29.8300881 70.659433,27.609072 70.659433,24.7161518 C70.659433,21.8418956 72.6723205,19.5462235 75.6529424,19.5462235 C78.8851753,19.5462235 80.6464518,21.5432716 80.6464518,24.8841278 C80.6464518,25.0707678 80.6464518,25.2760718 80.6270971,25.5000398 Z M75.7110065,22.0658636 C74.6464986,22.0658636 74.1432768,22.8310877 74.065858,23.5216557 L77.3561549,23.5216557 C77.3174455,22.7377677 76.7174502,22.0658636 75.7110065,22.0658636 Z M81.5174128,24.7161518 C81.5174128,21.7485756 83.8980394,19.5462235 87.0334988,19.5462235 C90.304441,19.5462235 92.6076489,21.7112476 92.6076489,24.6788238 C92.6076489,27.627736 90.2463769,29.8300881 87.0334988,29.8300881 C83.8012659,29.8300881 81.5174128,27.665064 81.5174128,24.7161518 Z M84.7496456,24.7161518 C84.7496456,26.1346159 85.71738,27.0864799 87.0334988,27.0864799 C88.3689722,27.0864799 89.375416,26.0786239 89.375416,24.6788238 C89.375416,23.2416957 88.3496176,22.2898317 87.0334988,22.2898317 C85.6980253,22.2898317 84.7496456,23.2790237 84.7496456,24.7161518 Z M100.794682,29.8300881 C102.47854,29.8300881 103.833368,29.3634881 104.801102,28.728912 L103.872077,25.9293119 C103.155954,26.3959119 102.072091,26.8438479 100.91081,26.8438479 C98.4334099,26.8438479 97.0785817,25.0707678 97.0785817,23.0363917 C97.0785817,21.0020156 98.4334099,19.2662635 100.91081,19.2662635 C102.072091,19.2662635 103.09789,19.7141995 103.814013,20.1807995 L104.743038,17.3811994 C103.775304,16.7466233 102.47854,16.2800233 100.794682,16.2800233 C96.5753598,16.2800233 93.6334473,19.2102715 93.6334473,23.0363917 C93.6334473,26.8811759 96.4205223,29.8300881 100.794682,29.8300881 Z M105.807546,24.7161518 C105.807546,21.7485756 108.188172,19.5462235 111.323632,19.5462235 C114.594574,19.5462235 116.897782,21.7112476 116.897782,24.6788238 C116.897782,27.627736 114.53651,29.8300881 111.323632,29.8300881 C108.091399,29.8300881 105.807546,27.665064 105.807546,24.7161518 Z M109.039779,24.7161518 C109.039779,26.1346159 110.007513,27.0864799 111.323632,27.0864799 C112.659105,27.0864799 113.665549,26.0786239 113.665549,24.6788238 C113.665549,23.2416957 112.639751,22.2898317 111.323632,22.2898317 C109.988158,22.2898317 109.039779,23.2790237 109.039779,24.7161518 Z M121.562262,19.7888555 L118.330029,19.7888555 L118.330029,29.5874561 L121.562262,29.5874561 L121.562262,19.7888555 Z M119.917113,19.1916075 C120.942912,19.1916075 121.736454,18.4823754 121.736454,17.5118474 C121.736454,16.5226553 120.942912,15.8134233 119.917113,15.8134233 C118.891315,15.8134233 118.117127,16.5226553 118.117127,17.5118474 C118.117127,18.4823754 118.891315,19.1916075 119.917113,19.1916075 Z M129.478329,29.5874561 L132.710562,29.5874561 L132.710562,24.1562318 C132.710562,22.1591836 132.400887,19.5462235 129.226718,19.5462235 C127.949309,19.5462235 127.058993,20.2181275 126.671899,20.7967116 L126.671899,19.7888555 L123.517085,19.7888555 L123.517085,29.5874561 L126.749318,29.5874561 L126.749318,23.7456237 C126.749318,22.9617357 127.25254,22.3458237 128.142856,22.3458237 C128.917043,22.3458237 129.478329,22.8310877 129.478329,23.7456237 L129.478329,29.5874561 Z" id="VideoCoin" fill="#FFFFFF"></path>
                            <path d="M136.609501,17.0335977 L135.756067,17.0335977 L135.756067,20.1210269 L134.789596,20.1210269 L134.789596,17.0335977 L133.936162,17.0335977 L133.936162,16.1700207 L136.609501,16.1700207 L136.609501,17.0335977 Z M139.740643,19.7993021 L138.853298,19.7993021 L137.982908,17.5302957 L137.982908,20.1210269 L137.056,20.1210269 L137.056,16.1700207 L138.310718,16.1700207 L139.294145,18.6704432 L140.283224,16.1700207 L141.537942,16.1700207 L141.537942,20.1210269 L140.611033,20.1210269 L140.611033,17.5302957 L139.740643,19.7993021 Z" id="TM" fill="#FFFFFF" fill-rule="nonzero"></path>
                        </g>
                        <g id="Components/Logos/Powered-By" transform="translate(39.052419, 4.200000)" fill="#E6E6E6" font-family="Rubik-Regular, Rubik" font-size="9.6" font-weight="normal" letter-spacing="0.0479999989">
                            <text id="Powered-By">
                                <tspan x="0.213710116" y="9.21342326">Powered By</tspan>
                            </text>
                        </g>
                    </g>
                </g>
            </g>
        </g>
    </g>
</svg>